# xmcd
# Track frame offsets:
# 150
# 16607
# 35839
# 52549
# 68693
# 86276
# 101455
# 118319
# 133807
# 151831
# 172128
# 188944
# 201917
# 215249
# 232841
# 252075
# 268415
# 286571
#
# Disc length: 4017 seconds
# Revision: 0
# Processed by: cddbd v1.5.1PL2 Copyright (c) Steve Scherf et al.
# Submitted via: VisiTrax 2.9.10.228 - For more info visit www.synapsa.com
#
DISCID=f90faf12
DTITLE=Various Artist - Promo 0281
DYEAR=2005
DGENRE=Country
TTITLE0=Jamie O'Neal - Somebody's Hero
TTITLE1=George Strait - You'll Be There
TTITLE2=Dierks Bentley - Lot Of Leavin' Left To Do
TTITLE3=Sugarland - Something More
TTITLE4=Keith Urban - Making Memories Of Us
TTITLE5=Trace Adkins - Songs About Me
TTITLE6=Travis Tritt - I See Me
TTITLE7=Kathleen Edwards - Back To Me
TTITLE8=Van Zant - Help Somebody
TTITLE9=Road Hammers - I'm A Road Hammer
TTITLE10=Lisa Brokop - Hey Do You Know Me
TTITLE11=Alan Jackson - The Talkin' Song Repair Blues
TTITLE12=Amanda Wilkinson - No More Me And You
TTITLE13=Miranda Lambert - Bring Me Down
TTITLE14=Rascal Flats - Fast Cars And Freedom
TTITLE15=Amber Dotson - I'll Try Anything
TTITLE16=Rebecca Lynn Howard - No One Will Ever Love Me
TTITLE17=Steve Holy - Go Home
EXTD=
EXTT0=
EXTT1=
EXTT2=
EXTT3=
EXTT4=
EXTT5=
EXTT6=
EXTT7=
EXTT8=
EXTT9=
EXTT10=
EXTT11=
EXTT12=
EXTT13=
EXTT14=
EXTT15=
EXTT16=
EXTT17=
PLAYORDER=
